<svg width="512" height="512" viewBox="0 0 512 512" fill="none" xmlns="http://www.w3.org/2000/svg">
  <title>Netior compact DNA mark</title>
  <desc>Compact geometric DNA-inspired logo optimized for app icon legibility.</desc>
  <g stroke="#0F172A" stroke-width="24" stroke-linecap="round" stroke-linejoin="round">
    <path d="M186 116C278 164 278 348 186 396" />
    <path d="M326 116C234 164 234 348 326 396" />
    <path d="M204 164L308 164" />
    <path d="M182 232L330 232" opacity="0.84" />
    <path d="M182 280L330 280" opacity="0.84" />
    <path d="M204 348L308 348" />
  </g>
  <g fill="#0F172A">
    <circle cx="186" cy="116" r="24" />
    <circle cx="326" cy="116" r="24" />
    <circle cx="182" cy="232" r="28" />
    <circle cx="330" cy="232" r="28" />
    <circle cx="182" cy="280" r="28" />
    <circle cx="330" cy="280" r="28" />
    <circle cx="186" cy="396" r="24" />
    <circle cx="326" cy="396" r="24" />
  </g>
  <g fill="#22C55E">
    <circle cx="256" cy="164" r="10" />
    <circle cx="256" cy="232" r="10" />
    <circle cx="256" cy="280" r="10" />
    <circle cx="256" cy="348" r="10" />
  </g>
</svg>
